<mxfile host="app.diagrams.net" modified="2022-11-11T11:16:17.280Z" agent="5.0 (Windows NT 10.0; Win64; x64) AppleWebKit/537.36 (KHTML, like Gecko) Chrome/107.0.0.0 Safari/537.36" etag="VFT3RULpt4fugfgxybfF" version="20.5.3" type="github" pages="2">
  <diagram id="gn1g1uADcrDrY_rKnY28" name="Page-1">
    <mxGraphModel dx="1662" dy="762" grid="1" gridSize="10" guides="1" tooltips="1" connect="1" arrows="1" fold="1" page="1" pageScale="1" pageWidth="827" pageHeight="1169" math="0" shadow="0">
      <root>
        <mxCell id="0" />
        <mxCell id="1" parent="0" />
        <mxCell id="pxloyE2LS41ZMPrz6FxU-19" value="&lt;p style=&quot;margin: 0px ; margin-top: 4px ; text-align: center&quot;&gt;&lt;b&gt;Theater&lt;/b&gt;&lt;/p&gt;&lt;hr size=&quot;1&quot;&gt;&lt;p style=&quot;margin: 0px ; margin-left: 4px&quot;&gt;- id : int(11) PK&lt;/p&gt;&lt;p style=&quot;margin: 0px ; margin-left: 4px&quot;&gt;- Name : varchar(20)&lt;/p&gt;&lt;p style=&quot;margin: 0px ; margin-left: 4px&quot;&gt;- Address : varchar(50)&lt;/p&gt;&lt;p style=&quot;margin: 0px ; margin-left: 4px&quot;&gt;- Telephone : varchar(20)&lt;/p&gt;&lt;p style=&quot;margin: 0px ; margin-left: 4px&quot;&gt;&lt;span style=&quot;background-color: initial;&quot;&gt;# admin_id : int(11) FK&lt;/span&gt;&lt;br&gt;&lt;/p&gt;" style="verticalAlign=top;align=left;overflow=fill;fontSize=12;fontFamily=Helvetica;html=1;" parent="1" vertex="1">
          <mxGeometry x="54" y="249" width="180" height="120" as="geometry" />
        </mxCell>
        <mxCell id="pxloyE2LS41ZMPrz6FxU-20" value="&lt;p style=&quot;margin: 0px ; margin-top: 4px ; text-align: center&quot;&gt;&lt;b&gt;Room&lt;/b&gt;&lt;/p&gt;&lt;hr size=&quot;1&quot;&gt;&lt;p style=&quot;margin: 0px ; margin-left: 4px&quot;&gt;- id : int(11) PK&lt;/p&gt;&lt;p style=&quot;margin: 0px ; margin-left: 4px&quot;&gt;- NumberOrName : varchar(20)&lt;/p&gt;&lt;p style=&quot;margin: 0px ; margin-left: 4px&quot;&gt;- SeatQtyMax : int(11)&lt;/p&gt;&lt;p style=&quot;margin: 0px ; margin-left: 4px&quot;&gt;# theater_id : int(11) FK&lt;/p&gt;&lt;p style=&quot;margin: 0px ; margin-left: 4px&quot;&gt;&lt;br&gt;&lt;/p&gt;" style="verticalAlign=top;align=left;overflow=fill;fontSize=12;fontFamily=Helvetica;html=1;" parent="1" vertex="1">
          <mxGeometry x="54" y="449.92999999999995" width="180" height="120.07" as="geometry" />
        </mxCell>
        <mxCell id="pxloyE2LS41ZMPrz6FxU-21" value="&lt;p style=&quot;margin: 0px ; margin-top: 4px ; text-align: center&quot;&gt;&lt;b&gt;Movie&lt;/b&gt;&lt;/p&gt;&lt;hr size=&quot;1&quot;&gt;&lt;p style=&quot;margin: 0px ; margin-left: 4px&quot;&gt;- id : int(11) PK&lt;/p&gt;&lt;p style=&quot;margin: 0px ; margin-left: 4px&quot;&gt;- Title : varchar(20)&lt;/p&gt;&lt;p style=&quot;margin: 0px ; margin-left: 4px&quot;&gt;- Language : varchar(20)&lt;/p&gt;" style="verticalAlign=top;align=left;overflow=fill;fontSize=12;fontFamily=Helvetica;html=1;" parent="1" vertex="1">
          <mxGeometry x="324" y="449.92999999999995" width="180" height="120.07" as="geometry" />
        </mxCell>
        <mxCell id="pxloyE2LS41ZMPrz6FxU-23" value="&lt;p style=&quot;margin: 0px ; margin-top: 4px ; text-align: center&quot;&gt;&lt;b&gt;Customer&lt;/b&gt;&lt;/p&gt;&lt;hr size=&quot;1&quot;&gt;&lt;p style=&quot;margin: 0px ; margin-left: 4px&quot;&gt;- id : int(11) PK&lt;/p&gt;&lt;p style=&quot;margin: 0px ; margin-left: 4px&quot;&gt;# user_id : int(11) FK&lt;/p&gt;" style="verticalAlign=top;align=left;overflow=fill;fontSize=12;fontFamily=Helvetica;html=1;" parent="1" vertex="1">
          <mxGeometry x="594" y="50" width="180" height="120" as="geometry" />
        </mxCell>
        <mxCell id="pxloyE2LS41ZMPrz6FxU-24" value="&lt;p style=&quot;margin: 0px ; margin-top: 4px ; text-align: center&quot;&gt;&lt;b&gt;User&lt;/b&gt;&lt;/p&gt;&lt;hr size=&quot;1&quot;&gt;&lt;p style=&quot;margin: 0px ; margin-left: 4px&quot;&gt;- id : int(11) PK&lt;/p&gt;&lt;p style=&quot;margin: 0px ; margin-left: 4px&quot;&gt;- Pseudo : varchar(50)&lt;/p&gt;&lt;p style=&quot;margin: 0px ; margin-left: 4px&quot;&gt;- FirstName : varchar(20)&lt;/p&gt;&lt;p style=&quot;margin: 0px ; margin-left: 4px&quot;&gt;- LastName : varchar(20)&lt;/p&gt;&lt;p style=&quot;margin: 0px ; margin-left: 4px&quot;&gt;- Email : varchar(50)&lt;/p&gt;&lt;p style=&quot;margin: 0px ; margin-left: 4px&quot;&gt;- Password : varchar(50)&lt;/p&gt;&lt;p style=&quot;margin: 0px ; margin-left: 4px&quot;&gt;&lt;br&gt;&lt;/p&gt;" style="verticalAlign=top;align=left;overflow=fill;fontSize=12;fontFamily=Helvetica;html=1;" parent="1" vertex="1">
          <mxGeometry x="324" y="50" width="180" height="120" as="geometry" />
        </mxCell>
        <mxCell id="pxloyE2LS41ZMPrz6FxU-25" value="&lt;p style=&quot;margin: 0px ; margin-top: 4px ; text-align: center&quot;&gt;&lt;b&gt;Adminstrator&lt;/b&gt;&lt;/p&gt;&lt;hr size=&quot;1&quot;&gt;&lt;p style=&quot;margin: 0px ; margin-left: 4px&quot;&gt;- id : int(11) PK&lt;/p&gt;&lt;p style=&quot;margin: 0px ; margin-left: 4px&quot;&gt;# user_id : int(11) FK&lt;/p&gt;" style="verticalAlign=top;align=left;overflow=fill;fontSize=12;fontFamily=Helvetica;html=1;" parent="1" vertex="1">
          <mxGeometry x="54" y="50" width="180" height="120" as="geometry" />
        </mxCell>
        <mxCell id="pxloyE2LS41ZMPrz6FxU-30" value="" style="endArrow=classic;html=1;rounded=0;entryX=0.5;entryY=1;entryDx=0;entryDy=0;exitX=0.5;exitY=0;exitDx=0;exitDy=0;" parent="1" source="pxloyE2LS41ZMPrz6FxU-19" target="pxloyE2LS41ZMPrz6FxU-25" edge="1">
          <mxGeometry relative="1" as="geometry">
            <mxPoint x="104" y="200" as="sourcePoint" />
            <mxPoint x="324" y="130.04000000000008" as="targetPoint" />
          </mxGeometry>
        </mxCell>
        <mxCell id="pxloyE2LS41ZMPrz6FxU-31" value="is manage by" style="edgeLabel;resizable=0;html=1;align=center;verticalAlign=middle;" parent="pxloyE2LS41ZMPrz6FxU-30" connectable="0" vertex="1">
          <mxGeometry relative="1" as="geometry">
            <mxPoint y="-1" as="offset" />
          </mxGeometry>
        </mxCell>
        <mxCell id="pxloyE2LS41ZMPrz6FxU-32" value="1" style="edgeLabel;resizable=0;html=1;align=left;verticalAlign=bottom;" parent="pxloyE2LS41ZMPrz6FxU-30" connectable="0" vertex="1">
          <mxGeometry x="-1" relative="1" as="geometry">
            <mxPoint x="-17" y="-4" as="offset" />
          </mxGeometry>
        </mxCell>
        <mxCell id="pxloyE2LS41ZMPrz6FxU-33" value="1..n" style="edgeLabel;resizable=0;html=1;align=right;verticalAlign=bottom;" parent="pxloyE2LS41ZMPrz6FxU-30" connectable="0" vertex="1">
          <mxGeometry x="1" relative="1" as="geometry">
            <mxPoint x="-10" y="25" as="offset" />
          </mxGeometry>
        </mxCell>
        <mxCell id="pxloyE2LS41ZMPrz6FxU-35" value="" style="endArrow=classic;html=1;rounded=0;exitX=0.5;exitY=1;exitDx=0;exitDy=0;entryX=0.5;entryY=0;entryDx=0;entryDy=0;" parent="1" source="pxloyE2LS41ZMPrz6FxU-19" target="pxloyE2LS41ZMPrz6FxU-20" edge="1">
          <mxGeometry relative="1" as="geometry">
            <mxPoint x="108" y="479" as="sourcePoint" />
            <mxPoint x="204" y="400" as="targetPoint" />
          </mxGeometry>
        </mxCell>
        <mxCell id="pxloyE2LS41ZMPrz6FxU-36" value="has" style="edgeLabel;resizable=0;html=1;align=center;verticalAlign=middle;" parent="pxloyE2LS41ZMPrz6FxU-35" connectable="0" vertex="1">
          <mxGeometry relative="1" as="geometry" />
        </mxCell>
        <mxCell id="pxloyE2LS41ZMPrz6FxU-37" value="1" style="edgeLabel;resizable=0;html=1;align=left;verticalAlign=bottom;" parent="pxloyE2LS41ZMPrz6FxU-35" connectable="0" vertex="1">
          <mxGeometry x="-1" relative="1" as="geometry">
            <mxPoint x="-16" y="20" as="offset" />
          </mxGeometry>
        </mxCell>
        <mxCell id="pxloyE2LS41ZMPrz6FxU-38" value="1..n" style="edgeLabel;resizable=0;html=1;align=right;verticalAlign=bottom;" parent="pxloyE2LS41ZMPrz6FxU-35" connectable="0" vertex="1">
          <mxGeometry x="1" relative="1" as="geometry">
            <mxPoint x="-9" y="-5" as="offset" />
          </mxGeometry>
        </mxCell>
        <mxCell id="bhPJH6hLJn69tjD6x8yb-1" value="&lt;p style=&quot;margin: 0px ; margin-top: 4px ; text-align: center&quot;&gt;&lt;b&gt;Reservation&lt;/b&gt;&lt;/p&gt;&lt;hr size=&quot;1&quot;&gt;&lt;p style=&quot;margin: 0px ; margin-left: 4px&quot;&gt;- id : int(11) PK&lt;/p&gt;&lt;p style=&quot;margin: 0px ; margin-left: 4px&quot;&gt;- PaymentType : varchar(20)&lt;/p&gt;&lt;p style=&quot;margin: 0px ; margin-left: 4px&quot;&gt;&lt;span&gt;# price_id : int(11) FK&lt;/span&gt;&lt;/p&gt;&lt;p style=&quot;margin: 0px ; margin-left: 4px&quot;&gt;&lt;span&gt;# showing_id : int(11) FK&lt;/span&gt;&lt;/p&gt;&lt;p style=&quot;margin: 0px ; margin-left: 4px&quot;&gt;&lt;span&gt;# customer_id : int(11) FK&lt;/span&gt;&lt;/p&gt;" style="verticalAlign=top;align=left;overflow=fill;fontSize=12;fontFamily=Helvetica;html=1;" parent="1" vertex="1">
          <mxGeometry x="594" y="249" width="180" height="120" as="geometry" />
        </mxCell>
        <mxCell id="bhPJH6hLJn69tjD6x8yb-11" value="1" style="endArrow=classic;html=1;rounded=0;entryX=0.5;entryY=1;entryDx=0;entryDy=0;exitX=0.5;exitY=0;exitDx=0;exitDy=0;" parent="1" source="bhPJH6hLJn69tjD6x8yb-1" target="pxloyE2LS41ZMPrz6FxU-23" edge="1">
          <mxGeometry relative="1" as="geometry">
            <mxPoint x="724" y="220" as="sourcePoint" />
            <mxPoint x="558" y="790" as="targetPoint" />
          </mxGeometry>
        </mxCell>
        <mxCell id="bhPJH6hLJn69tjD6x8yb-12" value="is make by" style="edgeLabel;resizable=0;html=1;align=center;verticalAlign=middle;" parent="bhPJH6hLJn69tjD6x8yb-11" connectable="0" vertex="1">
          <mxGeometry relative="1" as="geometry">
            <mxPoint x="-1" as="offset" />
          </mxGeometry>
        </mxCell>
        <mxCell id="bhPJH6hLJn69tjD6x8yb-13" value="1..n" style="edgeLabel;resizable=0;html=1;align=left;verticalAlign=bottom;" parent="bhPJH6hLJn69tjD6x8yb-11" connectable="0" vertex="1">
          <mxGeometry x="-1" relative="1" as="geometry">
            <mxPoint x="-26" y="-3" as="offset" />
          </mxGeometry>
        </mxCell>
        <mxCell id="bhPJH6hLJn69tjD6x8yb-14" value="1" style="edgeLabel;resizable=0;html=1;align=right;verticalAlign=bottom;" parent="bhPJH6hLJn69tjD6x8yb-11" connectable="0" vertex="1">
          <mxGeometry x="1" relative="1" as="geometry">
            <mxPoint x="-10" y="22" as="offset" />
          </mxGeometry>
        </mxCell>
        <mxCell id="bhPJH6hLJn69tjD6x8yb-20" value="" style="endArrow=classic;html=1;rounded=0;exitX=1;exitY=0.5;exitDx=0;exitDy=0;entryX=0;entryY=0.5;entryDx=0;entryDy=0;" parent="1" source="pxloyE2LS41ZMPrz6FxU-24" target="pxloyE2LS41ZMPrz6FxU-23" edge="1">
          <mxGeometry relative="1" as="geometry">
            <mxPoint x="602" y="430" as="sourcePoint" />
            <mxPoint x="674" y="90" as="targetPoint" />
          </mxGeometry>
        </mxCell>
        <mxCell id="bhPJH6hLJn69tjD6x8yb-21" value="extend" style="edgeLabel;resizable=0;html=1;align=center;verticalAlign=middle;" parent="bhPJH6hLJn69tjD6x8yb-20" connectable="0" vertex="1">
          <mxGeometry relative="1" as="geometry" />
        </mxCell>
        <mxCell id="bhPJH6hLJn69tjD6x8yb-22" value="1" style="edgeLabel;resizable=0;html=1;align=left;verticalAlign=bottom;" parent="bhPJH6hLJn69tjD6x8yb-20" connectable="0" vertex="1">
          <mxGeometry x="-1" relative="1" as="geometry">
            <mxPoint x="7" y="-5" as="offset" />
          </mxGeometry>
        </mxCell>
        <mxCell id="bhPJH6hLJn69tjD6x8yb-23" value="1" style="edgeLabel;resizable=0;html=1;align=right;verticalAlign=bottom;" parent="bhPJH6hLJn69tjD6x8yb-20" connectable="0" vertex="1">
          <mxGeometry x="1" relative="1" as="geometry">
            <mxPoint x="-7" y="-9" as="offset" />
          </mxGeometry>
        </mxCell>
        <mxCell id="bhPJH6hLJn69tjD6x8yb-28" value="" style="endArrow=classic;html=1;rounded=0;exitX=0;exitY=0.5;exitDx=0;exitDy=0;entryX=1;entryY=0.5;entryDx=0;entryDy=0;" parent="1" source="pxloyE2LS41ZMPrz6FxU-24" target="pxloyE2LS41ZMPrz6FxU-25" edge="1">
          <mxGeometry relative="1" as="geometry">
            <mxPoint x="448" y="480" as="sourcePoint" />
            <mxPoint x="398" y="200" as="targetPoint" />
          </mxGeometry>
        </mxCell>
        <mxCell id="bhPJH6hLJn69tjD6x8yb-29" value="extend" style="edgeLabel;resizable=0;html=1;align=center;verticalAlign=middle;" parent="bhPJH6hLJn69tjD6x8yb-28" connectable="0" vertex="1">
          <mxGeometry relative="1" as="geometry" />
        </mxCell>
        <mxCell id="bhPJH6hLJn69tjD6x8yb-30" value="1" style="edgeLabel;resizable=0;html=1;align=left;verticalAlign=bottom;" parent="bhPJH6hLJn69tjD6x8yb-28" connectable="0" vertex="1">
          <mxGeometry x="-1" relative="1" as="geometry">
            <mxPoint x="-20" y="-5" as="offset" />
          </mxGeometry>
        </mxCell>
        <mxCell id="bhPJH6hLJn69tjD6x8yb-31" value="1" style="edgeLabel;resizable=0;html=1;align=right;verticalAlign=bottom;" parent="bhPJH6hLJn69tjD6x8yb-28" connectable="0" vertex="1">
          <mxGeometry x="1" relative="1" as="geometry">
            <mxPoint x="14" y="-10" as="offset" />
          </mxGeometry>
        </mxCell>
        <mxCell id="bhPJH6hLJn69tjD6x8yb-36" value="&lt;p style=&quot;margin: 0px ; margin-top: 4px ; text-align: center&quot;&gt;&lt;b&gt;Showing&lt;/b&gt;&lt;/p&gt;&lt;hr size=&quot;1&quot;&gt;&lt;p style=&quot;margin: 0px ; margin-left: 4px&quot;&gt;- id : int(11) PK&lt;/p&gt;&lt;p style=&quot;margin: 0px ; margin-left: 4px&quot;&gt;- Date : date&lt;/p&gt;&lt;p style=&quot;margin: 0px ; margin-left: 4px&quot;&gt;- Time : varchar(20)&lt;/p&gt;&lt;p style=&quot;margin: 0px ; margin-left: 4px&quot;&gt;# room_id : int(11) FK&lt;/p&gt;&lt;p style=&quot;margin: 0px ; margin-left: 4px&quot;&gt;# movie_id : int(11) FK&lt;br&gt;&lt;/p&gt;" style="verticalAlign=top;align=left;overflow=fill;fontSize=12;fontFamily=Helvetica;html=1;" parent="1" vertex="1">
          <mxGeometry x="324" y="249" width="180" height="120" as="geometry" />
        </mxCell>
        <mxCell id="bhPJH6hLJn69tjD6x8yb-39" value="" style="endArrow=classic;html=1;rounded=0;exitX=0.5;exitY=1;exitDx=0;exitDy=0;entryX=0.5;entryY=0;entryDx=0;entryDy=0;" parent="1" source="bhPJH6hLJn69tjD6x8yb-36" target="pxloyE2LS41ZMPrz6FxU-21" edge="1">
          <mxGeometry relative="1" as="geometry">
            <mxPoint x="218" y="669" as="sourcePoint" />
            <mxPoint x="138" y="699" as="targetPoint" />
          </mxGeometry>
        </mxCell>
        <mxCell id="bhPJH6hLJn69tjD6x8yb-40" value="presents" style="edgeLabel;resizable=0;html=1;align=center;verticalAlign=middle;" parent="bhPJH6hLJn69tjD6x8yb-39" connectable="0" vertex="1">
          <mxGeometry relative="1" as="geometry" />
        </mxCell>
        <mxCell id="bhPJH6hLJn69tjD6x8yb-41" value="1" style="edgeLabel;resizable=0;html=1;align=left;verticalAlign=bottom;" parent="bhPJH6hLJn69tjD6x8yb-39" connectable="0" vertex="1">
          <mxGeometry x="-1" relative="1" as="geometry">
            <mxPoint x="-18" y="20" as="offset" />
          </mxGeometry>
        </mxCell>
        <mxCell id="bhPJH6hLJn69tjD6x8yb-42" value="1" style="edgeLabel;resizable=0;html=1;align=right;verticalAlign=bottom;" parent="bhPJH6hLJn69tjD6x8yb-39" connectable="0" vertex="1">
          <mxGeometry x="1" relative="1" as="geometry">
            <mxPoint x="-9" y="-2" as="offset" />
          </mxGeometry>
        </mxCell>
        <mxCell id="bhPJH6hLJn69tjD6x8yb-47" value="" style="endArrow=classic;html=1;rounded=0;exitX=0;exitY=0.5;exitDx=0;exitDy=0;entryX=1;entryY=0.5;entryDx=0;entryDy=0;" parent="1" source="bhPJH6hLJn69tjD6x8yb-1" target="bhPJH6hLJn69tjD6x8yb-36" edge="1">
          <mxGeometry relative="1" as="geometry">
            <mxPoint x="368" y="619" as="sourcePoint" />
            <mxPoint x="544" y="339" as="targetPoint" />
          </mxGeometry>
        </mxCell>
        <mxCell id="bhPJH6hLJn69tjD6x8yb-48" value="has" style="edgeLabel;resizable=0;html=1;align=center;verticalAlign=middle;" parent="bhPJH6hLJn69tjD6x8yb-47" connectable="0" vertex="1">
          <mxGeometry relative="1" as="geometry" />
        </mxCell>
        <mxCell id="bhPJH6hLJn69tjD6x8yb-49" value="1..n" style="edgeLabel;resizable=0;html=1;align=left;verticalAlign=bottom;" parent="bhPJH6hLJn69tjD6x8yb-47" connectable="0" vertex="1">
          <mxGeometry x="-1" relative="1" as="geometry">
            <mxPoint x="-25" y="-3" as="offset" />
          </mxGeometry>
        </mxCell>
        <mxCell id="bhPJH6hLJn69tjD6x8yb-50" value="1" style="edgeLabel;resizable=0;html=1;align=right;verticalAlign=bottom;" parent="bhPJH6hLJn69tjD6x8yb-47" connectable="0" vertex="1">
          <mxGeometry x="1" relative="1" as="geometry">
            <mxPoint x="16" y="-4" as="offset" />
          </mxGeometry>
        </mxCell>
        <mxCell id="bhPJH6hLJn69tjD6x8yb-60" value="&lt;p style=&quot;margin: 0px ; margin-top: 4px ; text-align: center&quot;&gt;&lt;b&gt;Price&lt;/b&gt;&lt;/p&gt;&lt;hr size=&quot;1&quot;&gt;&lt;p style=&quot;margin: 0px ; margin-left: 4px&quot;&gt;- id : int(11) PK&lt;/p&gt;&lt;p style=&quot;margin: 0px ; margin-left: 4px&quot;&gt;- Name : varchar(20)&lt;/p&gt;&lt;p style=&quot;margin: 0px ; margin-left: 4px&quot;&gt;- Description : varchar(50)&lt;/p&gt;&lt;p style=&quot;margin: 0px ; margin-left: 4px&quot;&gt;- Price : decimal(2, 2)&lt;/p&gt;" style="verticalAlign=top;align=left;overflow=fill;fontSize=12;fontFamily=Helvetica;html=1;" parent="1" vertex="1">
          <mxGeometry x="594" y="449.92999999999995" width="180" height="120.07" as="geometry" />
        </mxCell>
        <mxCell id="bhPJH6hLJn69tjD6x8yb-61" value="" style="endArrow=classic;html=1;rounded=0;entryX=0.5;entryY=0;entryDx=0;entryDy=0;exitX=0.5;exitY=1;exitDx=0;exitDy=0;" parent="1" source="bhPJH6hLJn69tjD6x8yb-1" target="bhPJH6hLJn69tjD6x8yb-60" edge="1">
          <mxGeometry relative="1" as="geometry">
            <mxPoint x="554" y="369" as="sourcePoint" />
            <mxPoint x="714" y="369" as="targetPoint" />
          </mxGeometry>
        </mxCell>
        <mxCell id="bhPJH6hLJn69tjD6x8yb-62" value="has" style="edgeLabel;resizable=0;html=1;align=center;verticalAlign=middle;" parent="bhPJH6hLJn69tjD6x8yb-61" connectable="0" vertex="1">
          <mxGeometry relative="1" as="geometry" />
        </mxCell>
        <mxCell id="bhPJH6hLJn69tjD6x8yb-63" value="1" style="edgeLabel;resizable=0;html=1;align=left;verticalAlign=bottom;" parent="bhPJH6hLJn69tjD6x8yb-61" connectable="0" vertex="1">
          <mxGeometry x="-1" relative="1" as="geometry">
            <mxPoint x="-12" y="17" as="offset" />
          </mxGeometry>
        </mxCell>
        <mxCell id="bhPJH6hLJn69tjD6x8yb-64" value="1" style="edgeLabel;resizable=0;html=1;align=right;verticalAlign=bottom;" parent="bhPJH6hLJn69tjD6x8yb-61" connectable="0" vertex="1">
          <mxGeometry x="1" relative="1" as="geometry">
            <mxPoint x="-8" y="-5" as="offset" />
          </mxGeometry>
        </mxCell>
        <mxCell id="vuyppv7UaTAfNrmiqc8r-5" value="" style="endArrow=classic;html=1;rounded=0;entryX=0;entryY=0.5;entryDx=0;entryDy=0;exitX=1;exitY=0.5;exitDx=0;exitDy=0;" parent="1" source="pxloyE2LS41ZMPrz6FxU-20" target="bhPJH6hLJn69tjD6x8yb-36" edge="1">
          <mxGeometry relative="1" as="geometry">
            <mxPoint x="254" y="410" as="sourcePoint" />
            <mxPoint x="484" y="250" as="targetPoint" />
          </mxGeometry>
        </mxCell>
        <mxCell id="vuyppv7UaTAfNrmiqc8r-6" value="has" style="edgeLabel;resizable=0;html=1;align=center;verticalAlign=middle;" parent="vuyppv7UaTAfNrmiqc8r-5" connectable="0" vertex="1">
          <mxGeometry relative="1" as="geometry" />
        </mxCell>
        <mxCell id="vuyppv7UaTAfNrmiqc8r-7" value="1..n" style="edgeLabel;resizable=0;html=1;align=left;verticalAlign=bottom;" parent="vuyppv7UaTAfNrmiqc8r-5" connectable="0" vertex="1">
          <mxGeometry x="-1" relative="1" as="geometry">
            <mxPoint x="2" y="-54" as="offset" />
          </mxGeometry>
        </mxCell>
        <mxCell id="vuyppv7UaTAfNrmiqc8r-8" value="1" style="edgeLabel;resizable=0;html=1;align=right;verticalAlign=bottom;" parent="vuyppv7UaTAfNrmiqc8r-5" connectable="0" vertex="1">
          <mxGeometry x="1" relative="1" as="geometry">
            <mxPoint x="-14" y="13" as="offset" />
          </mxGeometry>
        </mxCell>
      </root>
    </mxGraphModel>
  </diagram>
  <diagram id="5n2cu9X_M6HLrLUtGKDn" name="Page-2">
    <mxGraphModel dx="1445" dy="663" grid="1" gridSize="10" guides="1" tooltips="1" connect="1" arrows="1" fold="1" page="1" pageScale="1" pageWidth="827" pageHeight="1169" math="0" shadow="0">
      <root>
        <mxCell id="0" />
        <mxCell id="1" parent="0" />
        <mxCell id="mI4yjjVioNBe-Yd8I1r4-2" value="&lt;p style=&quot;margin:0px;margin-top:4px;text-align:center;&quot;&gt;&lt;b&gt;User&lt;/b&gt;&lt;/p&gt;&lt;hr size=&quot;1&quot;&gt;&lt;p style=&quot;margin:0px;margin-left:4px;&quot;&gt;- id&lt;/p&gt;&lt;p style=&quot;margin:0px;margin-left:4px;&quot;&gt;- speudo&lt;/p&gt;&lt;p style=&quot;margin:0px;margin-left:4px;&quot;&gt;- firstname&lt;/p&gt;&lt;p style=&quot;margin:0px;margin-left:4px;&quot;&gt;- lastname&lt;/p&gt;&lt;p style=&quot;margin:0px;margin-left:4px;&quot;&gt;- email&lt;/p&gt;&lt;p style=&quot;margin:0px;margin-left:4px;&quot;&gt;- password&lt;/p&gt;&lt;p style=&quot;margin:0px;margin-left:4px;&quot;&gt;- role&lt;/p&gt;" style="verticalAlign=top;align=left;overflow=fill;fontSize=12;fontFamily=Helvetica;html=1;fillColor=#FFFFC0;" vertex="1" parent="1">
          <mxGeometry x="333" y="14" width="160" height="140" as="geometry" />
        </mxCell>
        <mxCell id="75I55Jk1xzkpSNGKFOKv-5" style="edgeStyle=orthogonalEdgeStyle;rounded=0;orthogonalLoop=1;jettySize=auto;html=1;entryX=0.5;entryY=0;entryDx=0;entryDy=0;" edge="1" parent="1" source="DyM7JuEnP-XxKG2MLE6O-1" target="f14kv7XcFt5IMZ00B-av-1">
          <mxGeometry relative="1" as="geometry" />
        </mxCell>
        <mxCell id="DyM7JuEnP-XxKG2MLE6O-1" value="&lt;p style=&quot;margin:0px;margin-top:4px;text-align:center;&quot;&gt;&lt;b&gt;Customer&lt;/b&gt;&lt;/p&gt;&lt;hr size=&quot;1&quot;&gt;&lt;p style=&quot;margin:0px;margin-left:4px;&quot;&gt;- id&lt;/p&gt;" style="verticalAlign=top;align=left;overflow=fill;fontSize=12;fontFamily=Helvetica;html=1;fillColor=#FFFFC0;" vertex="1" parent="1">
          <mxGeometry x="493" y="220" width="160" height="70" as="geometry" />
        </mxCell>
        <mxCell id="75I55Jk1xzkpSNGKFOKv-1" style="edgeStyle=orthogonalEdgeStyle;rounded=0;orthogonalLoop=1;jettySize=auto;html=1;entryX=0.5;entryY=0;entryDx=0;entryDy=0;" edge="1" parent="1" source="xfjvlvNq3erFRb0TDwO_-1" target="LIwZEnsQAAgLuCCmln2l-1">
          <mxGeometry relative="1" as="geometry" />
        </mxCell>
        <mxCell id="xfjvlvNq3erFRb0TDwO_-1" value="&lt;p style=&quot;margin:0px;margin-top:4px;text-align:center;&quot;&gt;&lt;b&gt;Manager&lt;/b&gt;&lt;/p&gt;&lt;hr size=&quot;1&quot;&gt;&lt;p style=&quot;margin:0px;margin-left:4px;&quot;&gt;- id&lt;/p&gt;" style="verticalAlign=top;align=left;overflow=fill;fontSize=12;fontFamily=Helvetica;html=1;fillColor=#FFFFC0;" vertex="1" parent="1">
          <mxGeometry x="173" y="220" width="160" height="70" as="geometry" />
        </mxCell>
        <mxCell id="75I55Jk1xzkpSNGKFOKv-2" style="edgeStyle=orthogonalEdgeStyle;rounded=0;orthogonalLoop=1;jettySize=auto;html=1;entryX=0.5;entryY=0;entryDx=0;entryDy=0;" edge="1" parent="1" source="LIwZEnsQAAgLuCCmln2l-1" target="179UCSulVDHbVf-2lWNd-1">
          <mxGeometry relative="1" as="geometry" />
        </mxCell>
        <mxCell id="LIwZEnsQAAgLuCCmln2l-1" value="&lt;p style=&quot;margin:0px;margin-top:4px;text-align:center;&quot;&gt;&lt;b&gt;Theater&lt;/b&gt;&lt;/p&gt;&lt;hr size=&quot;1&quot;&gt;&lt;p style=&quot;margin:0px;margin-left:4px;&quot;&gt;- id&lt;/p&gt;&lt;p style=&quot;margin:0px;margin-left:4px;&quot;&gt;- name&lt;/p&gt;&lt;p style=&quot;margin:0px;margin-left:4px;&quot;&gt;- address&lt;/p&gt;&lt;p style=&quot;margin:0px;margin-left:4px;&quot;&gt;- phone&lt;/p&gt;&lt;p style=&quot;margin:0px;margin-left:4px;&quot;&gt;&lt;br&gt;&lt;/p&gt;" style="verticalAlign=top;align=left;overflow=fill;fontSize=12;fontFamily=Helvetica;html=1;fillColor=#FFFFC0;" vertex="1" parent="1">
          <mxGeometry x="64" y="360" width="160" height="110" as="geometry" />
        </mxCell>
        <mxCell id="75I55Jk1xzkpSNGKFOKv-3" style="edgeStyle=orthogonalEdgeStyle;rounded=0;orthogonalLoop=1;jettySize=auto;html=1;entryX=0;entryY=0.5;entryDx=0;entryDy=0;" edge="1" parent="1" source="179UCSulVDHbVf-2lWNd-1" target="pqLdJGgUXyrKtCwEcufm-1">
          <mxGeometry relative="1" as="geometry" />
        </mxCell>
        <mxCell id="179UCSulVDHbVf-2lWNd-1" value="&lt;p style=&quot;margin:0px;margin-top:4px;text-align:center;&quot;&gt;&lt;b&gt;Room&lt;/b&gt;&lt;/p&gt;&lt;hr size=&quot;1&quot;&gt;&lt;p style=&quot;margin:0px;margin-left:4px;&quot;&gt;- id&lt;/p&gt;&lt;p style=&quot;margin:0px;margin-left:4px;&quot;&gt;- numberOrName&lt;/p&gt;&lt;p style=&quot;margin:0px;margin-left:4px;&quot;&gt;- seatQtMax&lt;/p&gt;&lt;p style=&quot;margin:0px;margin-left:4px;&quot;&gt;&lt;br&gt;&lt;/p&gt;" style="verticalAlign=top;align=left;overflow=fill;fontSize=12;fontFamily=Helvetica;html=1;fillColor=#FFFFC0;" vertex="1" parent="1">
          <mxGeometry x="64" y="540" width="160" height="110" as="geometry" />
        </mxCell>
        <mxCell id="75I55Jk1xzkpSNGKFOKv-4" style="edgeStyle=orthogonalEdgeStyle;rounded=0;orthogonalLoop=1;jettySize=auto;html=1;entryX=0.5;entryY=0;entryDx=0;entryDy=0;" edge="1" parent="1" source="pqLdJGgUXyrKtCwEcufm-1" target="P0aYZbDk3un_Rb1M6cH7-1">
          <mxGeometry relative="1" as="geometry" />
        </mxCell>
        <mxCell id="pqLdJGgUXyrKtCwEcufm-1" value="&lt;p style=&quot;margin:0px;margin-top:4px;text-align:center;&quot;&gt;&lt;b&gt;Showing&lt;/b&gt;&lt;/p&gt;&lt;hr size=&quot;1&quot;&gt;&lt;p style=&quot;margin:0px;margin-left:4px;&quot;&gt;- id&lt;/p&gt;&lt;p style=&quot;margin:0px;margin-left:4px;&quot;&gt;- date&lt;/p&gt;&lt;p style=&quot;margin:0px;margin-left:4px;&quot;&gt;- time&lt;/p&gt;" style="verticalAlign=top;align=left;overflow=fill;fontSize=12;fontFamily=Helvetica;html=1;fillColor=#FFFFC0;" vertex="1" parent="1">
          <mxGeometry x="334" y="360" width="160" height="110" as="geometry" />
        </mxCell>
        <mxCell id="P0aYZbDk3un_Rb1M6cH7-1" value="&lt;p style=&quot;margin:0px;margin-top:4px;text-align:center;&quot;&gt;&lt;b&gt;Movie&lt;/b&gt;&lt;/p&gt;&lt;hr size=&quot;1&quot;&gt;&lt;p style=&quot;margin:0px;margin-left:4px;&quot;&gt;- id&lt;/p&gt;&lt;p style=&quot;margin:0px;margin-left:4px;&quot;&gt;- title&lt;/p&gt;&lt;p style=&quot;margin:0px;margin-left:4px;&quot;&gt;- language&lt;/p&gt;" style="verticalAlign=top;align=left;overflow=fill;fontSize=12;fontFamily=Helvetica;html=1;fillColor=#FFFFC0;" vertex="1" parent="1">
          <mxGeometry x="334" y="540" width="160" height="110" as="geometry" />
        </mxCell>
        <mxCell id="75I55Jk1xzkpSNGKFOKv-6" style="edgeStyle=orthogonalEdgeStyle;rounded=0;orthogonalLoop=1;jettySize=auto;html=1;entryX=0.5;entryY=0;entryDx=0;entryDy=0;" edge="1" parent="1" source="f14kv7XcFt5IMZ00B-av-1" target="bz9z72BaSoh68teuq9eb-1">
          <mxGeometry relative="1" as="geometry" />
        </mxCell>
        <mxCell id="75I55Jk1xzkpSNGKFOKv-8" style="edgeStyle=orthogonalEdgeStyle;rounded=0;orthogonalLoop=1;jettySize=auto;html=1;entryX=1;entryY=0.5;entryDx=0;entryDy=0;" edge="1" parent="1" source="f14kv7XcFt5IMZ00B-av-1" target="pqLdJGgUXyrKtCwEcufm-1">
          <mxGeometry relative="1" as="geometry" />
        </mxCell>
        <mxCell id="f14kv7XcFt5IMZ00B-av-1" value="&lt;p style=&quot;margin:0px;margin-top:4px;text-align:center;&quot;&gt;&lt;b&gt;Reservation&lt;/b&gt;&lt;/p&gt;&lt;hr size=&quot;1&quot;&gt;&lt;p style=&quot;margin:0px;margin-left:4px;&quot;&gt;- id&lt;/p&gt;&lt;p style=&quot;margin:0px;margin-left:4px;&quot;&gt;&lt;span style=&quot;background-color: initial;&quot;&gt;- paymentType&lt;/span&gt;&lt;/p&gt;" style="verticalAlign=top;align=left;overflow=fill;fontSize=12;fontFamily=Helvetica;html=1;fillColor=#FFFFC0;" vertex="1" parent="1">
          <mxGeometry x="604" y="360" width="160" height="110" as="geometry" />
        </mxCell>
        <mxCell id="bz9z72BaSoh68teuq9eb-1" value="&lt;p style=&quot;margin:0px;margin-top:4px;text-align:center;&quot;&gt;&lt;b&gt;Price&lt;/b&gt;&lt;/p&gt;&lt;hr size=&quot;1&quot;&gt;&lt;p style=&quot;margin:0px;margin-left:4px;&quot;&gt;- id&lt;/p&gt;&lt;p style=&quot;margin:0px;margin-left:4px;&quot;&gt;&lt;span style=&quot;background-color: initial;&quot;&gt;- name&lt;/span&gt;&lt;/p&gt;&lt;p style=&quot;margin:0px;margin-left:4px;&quot;&gt;&lt;span style=&quot;background-color: initial;&quot;&gt;- description&lt;/span&gt;&lt;/p&gt;&lt;p style=&quot;margin:0px;margin-left:4px;&quot;&gt;&lt;span style=&quot;background-color: initial;&quot;&gt;- price&lt;/span&gt;&lt;/p&gt;" style="verticalAlign=top;align=left;overflow=fill;fontSize=12;fontFamily=Helvetica;html=1;fillColor=#FFFFC0;" vertex="1" parent="1">
          <mxGeometry x="604" y="540" width="160" height="110" as="geometry" />
        </mxCell>
        <mxCell id="2jpl_ahFabGORY4vjG8K-1" value="MCD" style="text;align=center;fontStyle=1;verticalAlign=middle;spacingLeft=3;spacingRight=3;strokeColor=none;rotatable=0;points=[[0,0.5],[1,0.5]];portConstraint=eastwest;" vertex="1" parent="1">
          <mxGeometry x="10" y="14" width="80" height="26" as="geometry" />
        </mxCell>
        <mxCell id="2jpl_ahFabGORY4vjG8K-2" value="" style="endArrow=diamondThin;endFill=1;endSize=24;html=1;rounded=0;exitX=0.5;exitY=0;exitDx=0;exitDy=0;entryX=0;entryY=0.5;entryDx=0;entryDy=0;" edge="1" parent="1" source="xfjvlvNq3erFRb0TDwO_-1" target="mI4yjjVioNBe-Yd8I1r4-2">
          <mxGeometry width="160" relative="1" as="geometry">
            <mxPoint x="130" y="120" as="sourcePoint" />
            <mxPoint x="290" y="120" as="targetPoint" />
            <Array as="points">
              <mxPoint x="253" y="84" />
            </Array>
          </mxGeometry>
        </mxCell>
        <mxCell id="2jpl_ahFabGORY4vjG8K-3" value="" style="endArrow=diamondThin;endFill=1;endSize=24;html=1;rounded=0;exitX=0.5;exitY=0;exitDx=0;exitDy=0;entryX=1;entryY=0.5;entryDx=0;entryDy=0;" edge="1" parent="1" source="DyM7JuEnP-XxKG2MLE6O-1" target="mI4yjjVioNBe-Yd8I1r4-2">
          <mxGeometry width="160" relative="1" as="geometry">
            <mxPoint x="580" y="206" as="sourcePoint" />
            <mxPoint x="660" y="70" as="targetPoint" />
            <Array as="points">
              <mxPoint x="573" y="84" />
            </Array>
          </mxGeometry>
        </mxCell>
        <mxCell id="PfCf-923lu8lFOMRsc6E-1" value="1,n" style="text;html=1;strokeColor=none;fillColor=none;align=center;verticalAlign=middle;whiteSpace=wrap;rounded=0;" vertex="1" parent="1">
          <mxGeometry x="203" y="287" width="60" height="30" as="geometry" />
        </mxCell>
        <mxCell id="SNTpKYzss0tAd9E3lbWF-1" value="1,1" style="text;html=1;strokeColor=none;fillColor=none;align=center;verticalAlign=middle;whiteSpace=wrap;rounded=0;" vertex="1" parent="1">
          <mxGeometry x="94" y="330" width="60" height="30" as="geometry" />
        </mxCell>
        <mxCell id="SNTpKYzss0tAd9E3lbWF-2" value="1,n" style="text;html=1;strokeColor=none;fillColor=none;align=center;verticalAlign=middle;whiteSpace=wrap;rounded=0;" vertex="1" parent="1">
          <mxGeometry x="94" y="468" width="60" height="30" as="geometry" />
        </mxCell>
        <mxCell id="SNTpKYzss0tAd9E3lbWF-3" value="1,1" style="text;html=1;strokeColor=none;fillColor=none;align=center;verticalAlign=middle;whiteSpace=wrap;rounded=0;" vertex="1" parent="1">
          <mxGeometry x="94" y="514" width="60" height="30" as="geometry" />
        </mxCell>
        <mxCell id="SNTpKYzss0tAd9E3lbWF-4" value="1,1" style="text;html=1;strokeColor=none;fillColor=none;align=center;verticalAlign=middle;whiteSpace=wrap;rounded=0;" vertex="1" parent="1">
          <mxGeometry x="210" y="565" width="60" height="30" as="geometry" />
        </mxCell>
        <mxCell id="b4TJBhrCbL2wtplX6BNM-1" value="1,n" style="text;html=1;strokeColor=none;fillColor=none;align=center;verticalAlign=middle;whiteSpace=wrap;rounded=0;" vertex="1" parent="1">
          <mxGeometry x="286" y="385" width="60" height="30" as="geometry" />
        </mxCell>
        <mxCell id="b4TJBhrCbL2wtplX6BNM-2" value="1,1" style="text;html=1;strokeColor=none;fillColor=none;align=center;verticalAlign=middle;whiteSpace=wrap;rounded=0;" vertex="1" parent="1">
          <mxGeometry x="367" y="470" width="60" height="30" as="geometry" />
        </mxCell>
        <mxCell id="b4TJBhrCbL2wtplX6BNM-3" value="1,1" style="text;html=1;strokeColor=none;fillColor=none;align=center;verticalAlign=middle;whiteSpace=wrap;rounded=0;" vertex="1" parent="1">
          <mxGeometry x="367" y="510" width="60" height="30" as="geometry" />
        </mxCell>
        <mxCell id="HLrwIFqt_U5Eify2K3nS-1" value="1,n" style="text;html=1;strokeColor=none;fillColor=none;align=center;verticalAlign=middle;whiteSpace=wrap;rounded=0;" vertex="1" parent="1">
          <mxGeometry x="560" y="287" width="60" height="30" as="geometry" />
        </mxCell>
        <mxCell id="HLrwIFqt_U5Eify2K3nS-2" value="1,1" style="text;html=1;strokeColor=none;fillColor=none;align=center;verticalAlign=middle;whiteSpace=wrap;rounded=0;" vertex="1" parent="1">
          <mxGeometry x="675" y="330" width="60" height="30" as="geometry" />
        </mxCell>
        <mxCell id="HLrwIFqt_U5Eify2K3nS-3" value="1,1" style="text;html=1;strokeColor=none;fillColor=none;align=center;verticalAlign=middle;whiteSpace=wrap;rounded=0;" vertex="1" parent="1">
          <mxGeometry x="557" y="385" width="60" height="30" as="geometry" />
        </mxCell>
        <mxCell id="8E6ve-_-K6aR0YMBDX2Y-1" value="1,n" style="text;html=1;strokeColor=none;fillColor=none;align=center;verticalAlign=middle;whiteSpace=wrap;rounded=0;" vertex="1" parent="1">
          <mxGeometry x="482" y="385" width="60" height="30" as="geometry" />
        </mxCell>
        <mxCell id="8E6ve-_-K6aR0YMBDX2Y-2" value="1,1" style="text;html=1;strokeColor=none;fillColor=none;align=center;verticalAlign=middle;whiteSpace=wrap;rounded=0;" vertex="1" parent="1">
          <mxGeometry x="675" y="470" width="60" height="30" as="geometry" />
        </mxCell>
        <mxCell id="LAQU-KoOLdun7AfXwtjL-1" value="1,1" style="text;html=1;strokeColor=none;fillColor=none;align=center;verticalAlign=middle;whiteSpace=wrap;rounded=0;" vertex="1" parent="1">
          <mxGeometry x="675" y="511" width="60" height="30" as="geometry" />
        </mxCell>
        <mxCell id="WzG4Nw8vI7wUhZarL4T0-1" value="manages" style="text;html=1;strokeColor=none;fillColor=none;align=center;verticalAlign=middle;whiteSpace=wrap;rounded=0;" vertex="1" parent="1">
          <mxGeometry x="138" y="300" width="60" height="30" as="geometry" />
        </mxCell>
        <mxCell id="WzG4Nw8vI7wUhZarL4T0-3" value="makes" style="text;html=1;strokeColor=none;fillColor=none;align=center;verticalAlign=middle;whiteSpace=wrap;rounded=0;" vertex="1" parent="1">
          <mxGeometry x="637" y="300" width="60" height="30" as="geometry" />
        </mxCell>
        <mxCell id="WzG4Nw8vI7wUhZarL4T0-4" value="has" style="text;html=1;strokeColor=none;fillColor=none;align=center;verticalAlign=middle;whiteSpace=wrap;rounded=0;" vertex="1" parent="1">
          <mxGeometry x="131" y="490" width="60" height="30" as="geometry" />
        </mxCell>
        <mxCell id="7h7GHvvnhUItDeM-3UH6-1" value="has" style="text;html=1;strokeColor=none;fillColor=none;align=center;verticalAlign=middle;whiteSpace=wrap;rounded=0;" vertex="1" parent="1">
          <mxGeometry x="263" y="490" width="60" height="30" as="geometry" />
        </mxCell>
        <mxCell id="7h7GHvvnhUItDeM-3UH6-2" value="presents" style="text;html=1;strokeColor=none;fillColor=none;align=center;verticalAlign=middle;whiteSpace=wrap;rounded=0;" vertex="1" parent="1">
          <mxGeometry x="414" y="490" width="60" height="30" as="geometry" />
        </mxCell>
        <mxCell id="qAEup25cuEfwrp5StzWC-1" value="has" style="text;html=1;strokeColor=none;fillColor=none;align=center;verticalAlign=middle;whiteSpace=wrap;rounded=0;" vertex="1" parent="1">
          <mxGeometry x="639" y="490" width="60" height="30" as="geometry" />
        </mxCell>
        <mxCell id="qAEup25cuEfwrp5StzWC-2" value="&lt;p style=&quot;margin:0px;margin-top:4px;text-align:center;&quot;&gt;&lt;b&gt;User&lt;/b&gt;&lt;/p&gt;&lt;hr size=&quot;1&quot;&gt;&lt;p style=&quot;margin:0px;margin-left:4px;&quot;&gt;- id&lt;/p&gt;&lt;p style=&quot;margin:0px;margin-left:4px;&quot;&gt;- speudo&lt;/p&gt;&lt;p style=&quot;margin:0px;margin-left:4px;&quot;&gt;- firstname&lt;/p&gt;&lt;p style=&quot;margin:0px;margin-left:4px;&quot;&gt;- lastname&lt;/p&gt;&lt;p style=&quot;margin:0px;margin-left:4px;&quot;&gt;- email&lt;/p&gt;&lt;p style=&quot;margin:0px;margin-left:4px;&quot;&gt;- password&lt;/p&gt;&lt;p style=&quot;margin:0px;margin-left:4px;&quot;&gt;- role&lt;/p&gt;" style="verticalAlign=top;align=left;overflow=fill;fontSize=12;fontFamily=Helvetica;html=1;fillColor=#FFFFC0;" vertex="1" parent="1">
          <mxGeometry x="333" y="800" width="160" height="140" as="geometry" />
        </mxCell>
        <mxCell id="qAEup25cuEfwrp5StzWC-3" style="edgeStyle=orthogonalEdgeStyle;rounded=0;orthogonalLoop=1;jettySize=auto;html=1;entryX=0.5;entryY=0;entryDx=0;entryDy=0;" edge="1" parent="1" source="qAEup25cuEfwrp5StzWC-4" target="qAEup25cuEfwrp5StzWC-16">
          <mxGeometry relative="1" as="geometry" />
        </mxCell>
        <mxCell id="qAEup25cuEfwrp5StzWC-4" value="&lt;p style=&quot;margin:0px;margin-top:4px;text-align:center;&quot;&gt;&lt;b&gt;Customer&lt;/b&gt;&lt;/p&gt;&lt;hr size=&quot;1&quot;&gt;&lt;p style=&quot;margin:0px;margin-left:4px;&quot;&gt;- id&lt;/p&gt;" style="verticalAlign=top;align=left;overflow=fill;fontSize=12;fontFamily=Helvetica;html=1;fillColor=#FFFFC0;" vertex="1" parent="1">
          <mxGeometry x="493" y="1006" width="160" height="70" as="geometry" />
        </mxCell>
        <mxCell id="qAEup25cuEfwrp5StzWC-5" style="edgeStyle=orthogonalEdgeStyle;rounded=0;orthogonalLoop=1;jettySize=auto;html=1;entryX=0.5;entryY=0;entryDx=0;entryDy=0;" edge="1" parent="1" source="qAEup25cuEfwrp5StzWC-6" target="qAEup25cuEfwrp5StzWC-8">
          <mxGeometry relative="1" as="geometry" />
        </mxCell>
        <mxCell id="qAEup25cuEfwrp5StzWC-6" value="&lt;p style=&quot;margin:0px;margin-top:4px;text-align:center;&quot;&gt;&lt;b&gt;Manager&lt;/b&gt;&lt;/p&gt;&lt;hr size=&quot;1&quot;&gt;&lt;p style=&quot;margin:0px;margin-left:4px;&quot;&gt;- id&lt;/p&gt;" style="verticalAlign=top;align=left;overflow=fill;fontSize=12;fontFamily=Helvetica;html=1;fillColor=#FFFFC0;" vertex="1" parent="1">
          <mxGeometry x="173" y="1006" width="160" height="70" as="geometry" />
        </mxCell>
        <mxCell id="qAEup25cuEfwrp5StzWC-7" style="edgeStyle=orthogonalEdgeStyle;rounded=0;orthogonalLoop=1;jettySize=auto;html=1;entryX=0.5;entryY=0;entryDx=0;entryDy=0;" edge="1" parent="1" source="qAEup25cuEfwrp5StzWC-8" target="qAEup25cuEfwrp5StzWC-10">
          <mxGeometry relative="1" as="geometry" />
        </mxCell>
        <mxCell id="qAEup25cuEfwrp5StzWC-8" value="&lt;p style=&quot;margin:0px;margin-top:4px;text-align:center;&quot;&gt;&lt;b&gt;Theater&lt;/b&gt;&lt;/p&gt;&lt;hr size=&quot;1&quot;&gt;&lt;p style=&quot;margin:0px;margin-left:4px;&quot;&gt;- id&lt;/p&gt;&lt;p style=&quot;margin:0px;margin-left:4px;&quot;&gt;- name&lt;/p&gt;&lt;p style=&quot;margin:0px;margin-left:4px;&quot;&gt;- address&lt;/p&gt;&lt;p style=&quot;margin:0px;margin-left:4px;&quot;&gt;- phone&lt;/p&gt;&lt;p style=&quot;margin:0px;margin-left:4px;&quot;&gt;&lt;br&gt;&lt;/p&gt;" style="verticalAlign=top;align=left;overflow=fill;fontSize=12;fontFamily=Helvetica;html=1;fillColor=#FFFFC0;" vertex="1" parent="1">
          <mxGeometry x="64" y="1146" width="160" height="110" as="geometry" />
        </mxCell>
        <mxCell id="qAEup25cuEfwrp5StzWC-9" style="edgeStyle=orthogonalEdgeStyle;rounded=0;orthogonalLoop=1;jettySize=auto;html=1;entryX=0;entryY=0.5;entryDx=0;entryDy=0;" edge="1" parent="1" source="qAEup25cuEfwrp5StzWC-10" target="qAEup25cuEfwrp5StzWC-12">
          <mxGeometry relative="1" as="geometry" />
        </mxCell>
        <mxCell id="qAEup25cuEfwrp5StzWC-10" value="&lt;p style=&quot;margin:0px;margin-top:4px;text-align:center;&quot;&gt;&lt;b&gt;Room&lt;/b&gt;&lt;/p&gt;&lt;hr size=&quot;1&quot;&gt;&lt;p style=&quot;margin:0px;margin-left:4px;&quot;&gt;- id&lt;/p&gt;&lt;p style=&quot;margin:0px;margin-left:4px;&quot;&gt;- numberOrName&lt;/p&gt;&lt;p style=&quot;margin:0px;margin-left:4px;&quot;&gt;- seatQtMax&lt;/p&gt;&lt;p style=&quot;margin:0px;margin-left:4px;&quot;&gt;&lt;br&gt;&lt;/p&gt;" style="verticalAlign=top;align=left;overflow=fill;fontSize=12;fontFamily=Helvetica;html=1;fillColor=#FFFFC0;" vertex="1" parent="1">
          <mxGeometry x="64" y="1326" width="160" height="110" as="geometry" />
        </mxCell>
        <mxCell id="qAEup25cuEfwrp5StzWC-11" style="edgeStyle=orthogonalEdgeStyle;rounded=0;orthogonalLoop=1;jettySize=auto;html=1;entryX=0.5;entryY=0;entryDx=0;entryDy=0;" edge="1" parent="1" source="qAEup25cuEfwrp5StzWC-12" target="qAEup25cuEfwrp5StzWC-13">
          <mxGeometry relative="1" as="geometry" />
        </mxCell>
        <mxCell id="qAEup25cuEfwrp5StzWC-12" value="&lt;p style=&quot;margin:0px;margin-top:4px;text-align:center;&quot;&gt;&lt;b&gt;Showing&lt;/b&gt;&lt;/p&gt;&lt;hr size=&quot;1&quot;&gt;&lt;p style=&quot;margin:0px;margin-left:4px;&quot;&gt;- id&lt;/p&gt;&lt;p style=&quot;margin:0px;margin-left:4px;&quot;&gt;- date&lt;/p&gt;&lt;p style=&quot;margin:0px;margin-left:4px;&quot;&gt;- time&lt;/p&gt;" style="verticalAlign=top;align=left;overflow=fill;fontSize=12;fontFamily=Helvetica;html=1;fillColor=#FFFFC0;" vertex="1" parent="1">
          <mxGeometry x="334" y="1146" width="160" height="110" as="geometry" />
        </mxCell>
        <mxCell id="qAEup25cuEfwrp5StzWC-13" value="&lt;p style=&quot;margin:0px;margin-top:4px;text-align:center;&quot;&gt;&lt;b&gt;Movie&lt;/b&gt;&lt;/p&gt;&lt;hr size=&quot;1&quot;&gt;&lt;p style=&quot;margin:0px;margin-left:4px;&quot;&gt;- id&lt;/p&gt;&lt;p style=&quot;margin:0px;margin-left:4px;&quot;&gt;- title&lt;/p&gt;&lt;p style=&quot;margin:0px;margin-left:4px;&quot;&gt;- language&lt;/p&gt;" style="verticalAlign=top;align=left;overflow=fill;fontSize=12;fontFamily=Helvetica;html=1;fillColor=#FFFFC0;" vertex="1" parent="1">
          <mxGeometry x="334" y="1326" width="160" height="110" as="geometry" />
        </mxCell>
        <mxCell id="qAEup25cuEfwrp5StzWC-14" style="edgeStyle=orthogonalEdgeStyle;rounded=0;orthogonalLoop=1;jettySize=auto;html=1;entryX=0.5;entryY=0;entryDx=0;entryDy=0;" edge="1" parent="1" source="qAEup25cuEfwrp5StzWC-16" target="qAEup25cuEfwrp5StzWC-17">
          <mxGeometry relative="1" as="geometry" />
        </mxCell>
        <mxCell id="qAEup25cuEfwrp5StzWC-15" style="edgeStyle=orthogonalEdgeStyle;rounded=0;orthogonalLoop=1;jettySize=auto;html=1;entryX=1;entryY=0.5;entryDx=0;entryDy=0;" edge="1" parent="1" source="qAEup25cuEfwrp5StzWC-16" target="qAEup25cuEfwrp5StzWC-12">
          <mxGeometry relative="1" as="geometry" />
        </mxCell>
        <mxCell id="qAEup25cuEfwrp5StzWC-16" value="&lt;p style=&quot;margin:0px;margin-top:4px;text-align:center;&quot;&gt;&lt;b&gt;Reservation&lt;/b&gt;&lt;/p&gt;&lt;hr size=&quot;1&quot;&gt;&lt;p style=&quot;margin:0px;margin-left:4px;&quot;&gt;- id&lt;/p&gt;&lt;p style=&quot;margin:0px;margin-left:4px;&quot;&gt;&lt;span style=&quot;background-color: initial;&quot;&gt;- paymentType&lt;/span&gt;&lt;/p&gt;" style="verticalAlign=top;align=left;overflow=fill;fontSize=12;fontFamily=Helvetica;html=1;fillColor=#FFFFC0;" vertex="1" parent="1">
          <mxGeometry x="604" y="1146" width="160" height="110" as="geometry" />
        </mxCell>
        <mxCell id="qAEup25cuEfwrp5StzWC-17" value="&lt;p style=&quot;margin:0px;margin-top:4px;text-align:center;&quot;&gt;&lt;b&gt;Price&lt;/b&gt;&lt;/p&gt;&lt;hr size=&quot;1&quot;&gt;&lt;p style=&quot;margin:0px;margin-left:4px;&quot;&gt;- id&lt;/p&gt;&lt;p style=&quot;margin:0px;margin-left:4px;&quot;&gt;&lt;span style=&quot;background-color: initial;&quot;&gt;- name&lt;/span&gt;&lt;/p&gt;&lt;p style=&quot;margin:0px;margin-left:4px;&quot;&gt;&lt;span style=&quot;background-color: initial;&quot;&gt;- description&lt;/span&gt;&lt;/p&gt;&lt;p style=&quot;margin:0px;margin-left:4px;&quot;&gt;&lt;span style=&quot;background-color: initial;&quot;&gt;- price&lt;/span&gt;&lt;/p&gt;" style="verticalAlign=top;align=left;overflow=fill;fontSize=12;fontFamily=Helvetica;html=1;fillColor=#FFFFC0;" vertex="1" parent="1">
          <mxGeometry x="604" y="1326" width="160" height="110" as="geometry" />
        </mxCell>
        <mxCell id="qAEup25cuEfwrp5StzWC-18" value="MLD" style="text;align=center;fontStyle=1;verticalAlign=middle;spacingLeft=3;spacingRight=3;strokeColor=none;rotatable=0;points=[[0,0.5],[1,0.5]];portConstraint=eastwest;" vertex="1" parent="1">
          <mxGeometry x="10" y="800" width="80" height="26" as="geometry" />
        </mxCell>
        <mxCell id="qAEup25cuEfwrp5StzWC-19" value="" style="endArrow=diamondThin;endFill=1;endSize=24;html=1;rounded=0;exitX=0.5;exitY=0;exitDx=0;exitDy=0;entryX=0;entryY=0.5;entryDx=0;entryDy=0;" edge="1" parent="1" source="qAEup25cuEfwrp5StzWC-6" target="qAEup25cuEfwrp5StzWC-2">
          <mxGeometry width="160" relative="1" as="geometry">
            <mxPoint x="130" y="906" as="sourcePoint" />
            <mxPoint x="290" y="906" as="targetPoint" />
            <Array as="points">
              <mxPoint x="253" y="870" />
            </Array>
          </mxGeometry>
        </mxCell>
        <mxCell id="qAEup25cuEfwrp5StzWC-20" value="" style="endArrow=diamondThin;endFill=1;endSize=24;html=1;rounded=0;exitX=0.5;exitY=0;exitDx=0;exitDy=0;entryX=1;entryY=0.5;entryDx=0;entryDy=0;" edge="1" parent="1" source="qAEup25cuEfwrp5StzWC-4" target="qAEup25cuEfwrp5StzWC-2">
          <mxGeometry width="160" relative="1" as="geometry">
            <mxPoint x="580" y="992" as="sourcePoint" />
            <mxPoint x="660" y="856" as="targetPoint" />
            <Array as="points">
              <mxPoint x="573" y="870" />
            </Array>
          </mxGeometry>
        </mxCell>
        <mxCell id="qAEup25cuEfwrp5StzWC-21" value="1,n" style="text;html=1;strokeColor=none;fillColor=none;align=center;verticalAlign=middle;whiteSpace=wrap;rounded=0;" vertex="1" parent="1">
          <mxGeometry x="203" y="1073" width="60" height="30" as="geometry" />
        </mxCell>
        <mxCell id="qAEup25cuEfwrp5StzWC-22" value="1,1" style="text;html=1;strokeColor=none;fillColor=none;align=center;verticalAlign=middle;whiteSpace=wrap;rounded=0;" vertex="1" parent="1">
          <mxGeometry x="94" y="1116" width="60" height="30" as="geometry" />
        </mxCell>
        <mxCell id="qAEup25cuEfwrp5StzWC-23" value="1,n" style="text;html=1;strokeColor=none;fillColor=none;align=center;verticalAlign=middle;whiteSpace=wrap;rounded=0;" vertex="1" parent="1">
          <mxGeometry x="94" y="1254" width="60" height="30" as="geometry" />
        </mxCell>
        <mxCell id="qAEup25cuEfwrp5StzWC-24" value="1,1" style="text;html=1;strokeColor=none;fillColor=none;align=center;verticalAlign=middle;whiteSpace=wrap;rounded=0;" vertex="1" parent="1">
          <mxGeometry x="94" y="1300" width="60" height="30" as="geometry" />
        </mxCell>
        <mxCell id="qAEup25cuEfwrp5StzWC-25" value="1,1" style="text;html=1;strokeColor=none;fillColor=none;align=center;verticalAlign=middle;whiteSpace=wrap;rounded=0;" vertex="1" parent="1">
          <mxGeometry x="210" y="1351" width="60" height="30" as="geometry" />
        </mxCell>
        <mxCell id="qAEup25cuEfwrp5StzWC-26" value="1,n" style="text;html=1;strokeColor=none;fillColor=none;align=center;verticalAlign=middle;whiteSpace=wrap;rounded=0;" vertex="1" parent="1">
          <mxGeometry x="286" y="1171" width="60" height="30" as="geometry" />
        </mxCell>
        <mxCell id="qAEup25cuEfwrp5StzWC-27" value="1,1" style="text;html=1;strokeColor=none;fillColor=none;align=center;verticalAlign=middle;whiteSpace=wrap;rounded=0;" vertex="1" parent="1">
          <mxGeometry x="367" y="1256" width="60" height="30" as="geometry" />
        </mxCell>
        <mxCell id="qAEup25cuEfwrp5StzWC-28" value="1,1" style="text;html=1;strokeColor=none;fillColor=none;align=center;verticalAlign=middle;whiteSpace=wrap;rounded=0;" vertex="1" parent="1">
          <mxGeometry x="367" y="1296" width="60" height="30" as="geometry" />
        </mxCell>
        <mxCell id="qAEup25cuEfwrp5StzWC-29" value="1,n" style="text;html=1;strokeColor=none;fillColor=none;align=center;verticalAlign=middle;whiteSpace=wrap;rounded=0;" vertex="1" parent="1">
          <mxGeometry x="560" y="1073" width="60" height="30" as="geometry" />
        </mxCell>
        <mxCell id="qAEup25cuEfwrp5StzWC-30" value="1,1" style="text;html=1;strokeColor=none;fillColor=none;align=center;verticalAlign=middle;whiteSpace=wrap;rounded=0;" vertex="1" parent="1">
          <mxGeometry x="675" y="1116" width="60" height="30" as="geometry" />
        </mxCell>
        <mxCell id="qAEup25cuEfwrp5StzWC-31" value="1,1" style="text;html=1;strokeColor=none;fillColor=none;align=center;verticalAlign=middle;whiteSpace=wrap;rounded=0;" vertex="1" parent="1">
          <mxGeometry x="557" y="1171" width="60" height="30" as="geometry" />
        </mxCell>
        <mxCell id="qAEup25cuEfwrp5StzWC-32" value="1,n" style="text;html=1;strokeColor=none;fillColor=none;align=center;verticalAlign=middle;whiteSpace=wrap;rounded=0;" vertex="1" parent="1">
          <mxGeometry x="482" y="1171" width="60" height="30" as="geometry" />
        </mxCell>
        <mxCell id="qAEup25cuEfwrp5StzWC-33" value="1,1" style="text;html=1;strokeColor=none;fillColor=none;align=center;verticalAlign=middle;whiteSpace=wrap;rounded=0;" vertex="1" parent="1">
          <mxGeometry x="675" y="1256" width="60" height="30" as="geometry" />
        </mxCell>
        <mxCell id="qAEup25cuEfwrp5StzWC-34" value="1,1" style="text;html=1;strokeColor=none;fillColor=none;align=center;verticalAlign=middle;whiteSpace=wrap;rounded=0;" vertex="1" parent="1">
          <mxGeometry x="675" y="1297" width="60" height="30" as="geometry" />
        </mxCell>
        <mxCell id="qAEup25cuEfwrp5StzWC-35" value="manages" style="text;html=1;strokeColor=none;fillColor=none;align=center;verticalAlign=middle;whiteSpace=wrap;rounded=0;" vertex="1" parent="1">
          <mxGeometry x="138" y="1086" width="60" height="30" as="geometry" />
        </mxCell>
        <mxCell id="qAEup25cuEfwrp5StzWC-36" value="makes" style="text;html=1;strokeColor=none;fillColor=none;align=center;verticalAlign=middle;whiteSpace=wrap;rounded=0;" vertex="1" parent="1">
          <mxGeometry x="637" y="1086" width="60" height="30" as="geometry" />
        </mxCell>
        <mxCell id="qAEup25cuEfwrp5StzWC-37" value="has" style="text;html=1;strokeColor=none;fillColor=none;align=center;verticalAlign=middle;whiteSpace=wrap;rounded=0;" vertex="1" parent="1">
          <mxGeometry x="131" y="1276" width="60" height="30" as="geometry" />
        </mxCell>
        <mxCell id="qAEup25cuEfwrp5StzWC-38" value="has" style="text;html=1;strokeColor=none;fillColor=none;align=center;verticalAlign=middle;whiteSpace=wrap;rounded=0;" vertex="1" parent="1">
          <mxGeometry x="263" y="1276" width="60" height="30" as="geometry" />
        </mxCell>
        <mxCell id="qAEup25cuEfwrp5StzWC-39" value="presents" style="text;html=1;strokeColor=none;fillColor=none;align=center;verticalAlign=middle;whiteSpace=wrap;rounded=0;" vertex="1" parent="1">
          <mxGeometry x="414" y="1276" width="60" height="30" as="geometry" />
        </mxCell>
        <mxCell id="qAEup25cuEfwrp5StzWC-40" value="has" style="text;html=1;strokeColor=none;fillColor=none;align=center;verticalAlign=middle;whiteSpace=wrap;rounded=0;" vertex="1" parent="1">
          <mxGeometry x="639" y="1276" width="60" height="30" as="geometry" />
        </mxCell>
      </root>
    </mxGraphModel>
  </diagram>
</mxfile>
